# Blender 3.6.1
# www.blender.org
o Plane
v -3.600000 -1.000000 0.000000
v -4.000000 -0.900000 0.000000
v -3.800000 -0.986603 0.000000
v -3.946410 -0.950000 0.000000
v 4.000000 -0.900000 0.000000
v 3.600000 -1.000000 0.000000
v 3.946410 -0.950000 0.000000
v 3.800000 -0.986603 0.000000
v -3.600000 1.000000 0.000000
v -4.000000 0.900000 0.000000
v -3.800000 0.986603 0.000000
v -3.946410 0.950000 0.000000
v 3.600000 1.000000 0.000000
v 4.000000 0.900000 0.000000
v 3.800000 0.986603 0.000000
v 3.946410 0.950000 0.000000
vn -0.0000 -0.0000 1.0000
vt 1.000000 0.050000
vt 0.950000 1.000000
vt 0.000000 0.950000
vt 0.000000 0.050000
vt 0.050000 0.000000
vt 0.006699 0.025000
vt 0.025000 0.006699
vt 0.950000 0.000000
vt 0.975000 0.006699
vt 0.993301 0.025000
vt 1.000000 0.950000
vt 0.993301 0.975000
vt 0.975000 0.993301
vt 0.050000 1.000000
vt 0.025000 0.993301
vt 0.006699 0.975000
s 0
f 5/1/1 13/2/1 10/3/1
f 10/3/1 2/4/1 1/5/1
f 2/4/1 4/6/1 1/5/1
f 4/6/1 3/7/1 1/5/1
f 1/5/1 6/8/1 5/1/1
f 6/8/1 8/9/1 5/1/1
f 8/9/1 7/10/1 5/1/1
f 5/1/1 14/11/1 13/2/1
f 14/11/1 16/12/1 13/2/1
f 16/12/1 15/13/1 13/2/1
f 13/2/1 9/14/1 10/3/1
f 9/14/1 11/15/1 10/3/1
f 11/15/1 12/16/1 10/3/1
f 10/3/1 1/5/1 5/1/1
